# Blender v2.92.0 OBJ File: ''
# www.blender.org
mtllib house1.mtl
o Cube.001
v 1.269408 3.391185 -3.245408
v 0.341047 3.391185 -3.245408
v 0.379337 3.391185 -2.830645
v 1.231119 3.391185 -2.830645
v 2.994200 2.468051 -3.205451
v -1.272840 2.468051 -3.205451
v -1.272840 2.480831 -3.205451
v 2.994200 2.480831 -3.205451
v -1.272840 0.151741 -0.889141
v -1.272840 2.468051 -0.889141
v -1.272840 0.151742 -3.205451
v 2.994200 0.151742 -3.205451
v 2.994200 0.151741 -0.889141
v 2.994200 2.468051 -0.889141
v 2.994200 2.480831 -0.889141
v -1.272840 2.480831 -0.889141
v 1.834321 3.640710 -2.045573
v -0.112961 3.640710 -2.045573
v -0.112961 3.640710 -2.049020
v 1.834321 3.640710 -2.049020
v -0.930545 1.138362 -0.831502
v -0.930545 1.785773 -0.831502
v -0.927903 1.810810 -1.496901
v -0.927903 1.163399 -1.496901
v -0.280492 1.810810 -1.496901
v -0.280492 1.163399 -1.496901
v -0.283134 1.785773 -0.831502
v -0.283134 1.138362 -0.831502
v 0.135927 0.153677 -1.048853
v 0.135927 1.916394 -1.048853
v 0.135927 1.916394 -0.841675
v 0.135927 0.153677 -0.841675
v 1.169574 1.916394 -0.841675
v 1.169574 0.153677 -0.841675
v 1.169574 1.916394 -1.048853
v 1.169574 0.153677 -1.048853
v 1.783765 1.045610 -0.889141
v 1.783765 1.045610 -0.835935
v 1.783765 1.897392 -0.835935
v 1.783765 1.897392 -0.889141
v 2.635547 1.897392 -0.889141
v 2.635547 1.897392 -0.835935
v 2.635547 1.045610 -0.835935
v 2.635547 1.045610 -0.889141
v 0.361408 2.484016 -3.202266
v 0.379337 2.848779 -2.837503
v 1.249048 2.484016 -3.202266
v 1.231119 2.845980 -2.840302
v 2.231562 1.464386 -0.835935
v 2.231562 1.464386 -0.849658
v 2.231562 1.816717 -0.849658
v 2.231562 1.816717 -0.835935
v 2.601582 1.816717 -0.849658
v 2.601582 1.464386 -0.849658
v 2.601582 1.464386 -0.835935
v 2.601582 1.816717 -0.835935
v 1.826962 1.464386 -0.848654
v 1.826962 1.816717 -0.848654
v 1.826962 1.816717 -0.835935
v 1.826962 1.464386 -0.835935
v 2.196982 1.816717 -0.848654
v 2.196982 1.464386 -0.848654
v 2.196982 1.464386 -0.835935
v 2.196982 1.816717 -0.835935
v 2.231562 1.074684 -0.857234
v 2.231562 1.427015 -0.857234
v 2.231562 1.427015 -0.835935
v 2.231562 1.074684 -0.835935
v 2.601582 1.427015 -0.857234
v 2.601582 1.074684 -0.857234
v 2.601582 1.074684 -0.835935
v 2.601582 1.427015 -0.835935
v 2.236120 1.427015 -0.835935
v 1.827291 1.074673 -0.849451
v 1.827291 1.427004 -0.849451
v 1.827291 1.427004 -0.835935
v 1.827291 1.074673 -0.835935
v 2.197311 1.427004 -0.849451
v 2.197311 1.074673 -0.849451
v 2.197311 1.074673 -0.835935
v 2.197311 1.427004 -0.835935
v -0.587617 1.500934 -0.847567
v -0.587617 1.749250 -0.847567
v -0.587617 1.749250 -0.831502
v -0.587617 1.500934 -0.831502
v -0.326834 1.749250 -0.847567
v -0.326834 1.500934 -0.847567
v -0.326834 1.500934 -0.831502
v -0.326834 1.749250 -0.831502
v -0.904125 1.500934 -0.847567
v -0.904125 1.749250 -0.847567
v -0.904125 1.749250 -0.831502
v -0.904125 1.500934 -0.831502
v -0.643342 1.749250 -0.847567
v -0.643342 1.500934 -0.847567
v -0.643342 1.500934 -0.831502
v -0.643342 1.749250 -0.831502
v -0.587617 1.195294 -0.847567
v -0.587617 1.443610 -0.847567
v -0.587617 1.443610 -0.831502
v -0.587617 1.195294 -0.831502
v -0.326834 1.443610 -0.847567
v -0.326834 1.195294 -0.847567
v -0.326834 1.195294 -0.831502
v -0.326834 1.443610 -0.831502
v -0.893295 1.195294 -0.847567
v -0.893295 1.443610 -0.847567
v -0.893295 1.443610 -0.831502
v -0.893295 1.195294 -0.831502
v -0.632511 1.443610 -0.847567
v -0.632511 1.195294 -0.847567
v -0.632511 1.195294 -0.831502
v -0.632511 1.443610 -0.831502
vt 0.625000 0.500000
vt 0.875000 0.750000
vt 0.625000 0.750000
vt 0.625000 0.250000
vt 0.625000 0.500000
vt 0.625000 0.500000
vt 0.625000 0.000000
vt 0.375000 0.250000
vt 0.375000 0.000000
vt 0.375000 0.500000
vt 0.125000 0.750000
vt 0.125000 0.500000
vt 0.375000 0.750000
vt 0.625000 0.750000
vt 0.625000 0.750000
vt 0.625000 0.250000
vt 0.807044 0.625186
vt 0.692956 0.624814
vt 0.692956 0.625186
vt 0.807044 0.624814
vt 0.625000 1.000000
vt 0.625000 1.000000
vt 0.625000 0.000000
vt 0.375000 0.250000
vt 0.375000 0.000000
vt 0.625000 0.250000
vt 0.375000 0.500000
vt 0.625000 0.750000
vt 0.375000 0.750000
vt 0.125000 0.500000
vt 0.125000 0.750000
vt 0.875000 0.500000
vt 0.625000 0.500000
vt 0.625000 0.000000
vt 0.375000 0.250000
vt 0.375000 0.000000
vt 0.625000 0.250000
vt 0.375000 0.500000
vt 0.625000 0.500000
vt 0.375000 0.750000
vt 0.625000 0.750000
vt 0.375000 1.000000
vt 0.125000 0.750000
vt 0.125000 0.500000
vt 0.875000 0.500000
vt 0.375000 0.000000
vt 0.625000 0.082471
vt 0.375000 0.082471
vt 0.625000 0.750000
vt 0.375000 0.667529
vt 0.625000 0.667529
vt 0.125000 0.750000
vt 0.375000 0.750000
vt 0.875000 0.750000
vt 0.875000 0.667529
vt 0.471475 0.771013
vt 0.563409 0.771013
vt 0.471475 0.820918
vt 0.563408 0.820918
vt 0.875000 0.750000
vt 0.875000 0.500000
vt 0.625000 0.250000
vt 0.545515 0.000000
vt 0.625000 0.000000
vt 0.492062 0.250000
vt 0.513083 0.750000
vt 0.492062 0.500000
vt 0.545515 1.000000
vt 0.778201 0.539713
vt 0.779252 0.500344
vt 0.727246 0.500344
vt 0.728297 0.539411
vt 0.375000 0.000000
vt 0.625000 0.124427
vt 0.375000 0.124427
vt 0.375000 0.750000
vt 0.625000 0.625573
vt 0.625000 0.750000
vt 0.625000 1.000000
vt 0.375000 1.000000
vt 0.125000 0.625573
vt 0.375000 0.625573
vt 0.875000 0.750000
vt 0.875000 0.625573
vt 0.497912 0.759969
vt 0.625000 0.000000
vt 0.375000 0.115320
vt 0.375000 0.000000
vt 0.375000 0.750000
vt 0.625000 0.634680
vt 0.625000 0.750000
vt 0.625000 1.000000
vt 0.375000 1.000000
vt 0.125000 0.634680
vt 0.375000 0.634680
vt 0.875000 0.634680
vt 0.875000 0.750000
vt 0.497912 0.868571
vt 0.601322 0.878720
vt 0.497912 0.878720
vt 0.625000 0.000000
vt 0.375000 0.193116
vt 0.375000 0.000000
vt 0.375000 0.750000
vt 0.625000 0.556884
vt 0.625000 0.750000
vt 0.625000 1.000000
vt 0.375000 1.000000
vt 0.125000 0.556884
vt 0.375000 0.556884
vt 0.871921 0.556884
vt 0.486943 0.867233
vt 0.486943 0.759969
vt 0.625000 0.000000
vt 0.375000 0.122550
vt 0.375000 0.000000
vt 0.375000 0.750000
vt 0.625000 0.627450
vt 0.625000 0.750000
vt 0.625000 1.000000
vt 0.375000 1.000000
vt 0.125000 0.627450
vt 0.375000 0.627450
vt 0.875000 0.627450
vt 0.875000 0.750000
vt 0.375000 1.000000
vt 0.383530 0.878623
vt 0.383530 0.987225
vt 0.383533 0.868571
vt 0.486940 0.878623
vt 0.625000 0.000000
vt 0.375000 0.135436
vt 0.375000 0.000000
vt 0.375000 0.750000
vt 0.625000 0.614564
vt 0.625000 0.750000
vt 0.625000 1.000000
vt 0.375000 1.000000
vt 0.125000 0.614564
vt 0.375000 0.614564
vt 0.875000 0.750000
vt 0.875000 0.614564
vt 0.610896 0.867577
vt 0.610896 0.766875
vt 0.625000 0.000000
vt 0.375000 0.135436
vt 0.375000 0.000000
vt 0.375000 0.750000
vt 0.625000 0.614564
vt 0.625000 0.750000
vt 0.625000 1.000000
vt 0.375000 1.000000
vt 0.125000 0.614564
vt 0.375000 0.614564
vt 0.875000 0.614564
vt 0.875000 0.750000
vt 0.625000 1.000000
vt 0.610896 0.889095
vt 0.625000 0.000000
vt 0.375000 0.135436
vt 0.375000 0.000000
vt 0.375000 0.750000
vt 0.625000 0.614564
vt 0.625000 0.750000
vt 0.625000 1.000000
vt 0.375000 1.000000
vt 0.125000 0.614564
vt 0.375000 0.614564
vt 0.875000 0.614564
vt 0.875000 0.750000
vt 0.515008 0.766875
vt 0.492873 0.867577
vt 0.492873 0.766875
vt 0.625000 0.000000
vt 0.375000 0.135436
vt 0.375000 0.000000
vt 0.375000 0.750000
vt 0.625000 0.614564
vt 0.625000 0.750000
vt 0.625000 1.000000
vt 0.375000 1.000000
vt 0.125000 0.614564
vt 0.375000 0.614564
vt 0.875000 0.614564
vt 0.875000 0.750000
vt 0.492873 0.985616
vt 0.515008 0.989798
vt 0.375000 1.000000
vt 0.396984 0.867577
vt 0.492873 0.884913
vt 0.396985 0.884913
vt 0.875000 0.500000
vt 0.625000 0.000000
vt 0.875000 0.750000
vt 0.625000 1.000000
vt 0.875000 0.750000
vt 0.625000 0.000000
vt 0.125000 0.667529
vt 0.375000 1.000000
vt 0.625000 1.000000
vt 0.625000 0.000000
vt 0.125000 0.750000
vt 0.601322 0.759969
vt 0.625000 0.115320
vt 0.125000 0.750000
vt 0.601322 0.868571
vt 0.625000 0.193116
vt 0.125000 0.750000
vt 0.875000 0.556884
vt 0.875000 0.750000
vt 0.625000 0.122550
vt 0.125000 0.750000
vt 0.486943 0.868570
vt 0.497912 0.987322
vt 0.486940 0.987225
vt 0.601322 0.987321
vt 0.625000 1.000000
vt 0.383533 0.759969
vt 0.625000 0.135436
vt 0.125000 0.750000
vt 0.625000 0.135436
vt 0.125000 0.750000
vt 0.515008 0.889095
vt 0.515008 0.867577
vt 0.610896 0.989798
vt 0.625000 0.135436
vt 0.125000 0.750000
vt 0.625000 0.135436
vt 0.125000 0.750000
vt 0.396984 0.766875
vt 0.396984 0.985616
vn 0.0000 1.0000 -0.0000
vn 0.0000 0.0000 -1.0000
vn -1.0000 -0.0000 0.0000
vn 0.0000 -1.0000 -0.0000
vn 1.0000 -0.0000 0.0000
vn 0.0000 0.7071 0.7071
vn -0.0000 -0.0000 1.0000
vn -1.0000 0.0000 -0.0040
vn 1.0000 -0.0000 0.0040
vn 0.0000 -0.9993 -0.0376
vn 0.0000 0.9993 0.0376
vn -0.7071 -0.7071 0.0000
vn 0.7071 0.7071 0.0000
vn 0.7071 -0.7071 0.0000
vn -0.7071 0.7071 0.0000
vn -0.9965 -0.0082 0.0826
vn -0.9971 -0.0141 0.0748
vn -0.9958 -0.0012 0.0919
vn 0.0000 -0.0475 -0.9989
vn 0.9965 -0.0084 0.0828
vn 0.9971 -0.0143 0.0750
vn 0.9975 -0.0191 0.0685
vn 0.0021 -0.0159 0.9999
vn 0.0012 -0.0145 0.9999
vn 0.0032 -0.0177 0.9998
vn -0.0000 0.7071 -0.7071
vn -0.0000 0.7070 -0.7072
vn 0.0000 0.7072 -0.7070
vn -0.9975 -0.0191 0.0682
vn 0.9958 -0.0016 0.0919
vn 0.0000 -0.0126 0.9999
usemtl Material.001
s 1
f 1/1/1 3/2/1 4/3/1
f 6/4/2 8/5/2 5/6/2
f 10/7/3 11/8/3 9/9/3
f 12/10/4 9/11/4 11/12/4
f 5/6/5 13/13/5 12/10/5
f 6/4/2 12/10/2 11/8/2
f 5/6/5 15/14/5 14/15/5
f 10/7/3 7/16/3 6/4/3
f 18/17/4 20/18/4 17/19/4
f 19/20/6 15/14/6 20/18/6
f 14/15/7 16/21/7 10/22/7
f 22/23/8 24/24/8 21/25/8
f 23/26/2 26/27/2 24/24/2
f 26/27/9 27/28/9 28/29/9
f 24/30/10 28/29/10 21/31/10
f 23/32/11 27/28/11 25/33/11
f 30/34/5 32/35/5 29/36/5
f 31/37/2 34/38/2 32/35/2
f 33/39/3 36/40/3 34/38/3
f 35/41/7 29/42/7 36/40/7
f 34/38/1 29/43/1 32/44/1
f 31/45/4 35/41/4 33/39/4
f 38/46/3 40/47/3 37/48/3
f 42/49/5 44/50/5 41/51/5
f 38/52/4 44/50/4 43/53/4
f 39/54/1 41/51/1 40/55/1
f 44/56/7 14/15/7 41/57/7
f 10/22/7 37/58/7 40/59/7
f 17/19/12 20/18/12 8/5/12
f 20/18/13 15/14/13 8/5/13
f 19/20/14 18/17/14 16/60/14
f 18/17/15 7/61/15 16/60/15
f 2/62/16 46/63/17 3/64/18
f 1/1/19 45/65/19 2/62/19
f 1/1/20 48/66/21 47/67/22
f 4/3/23 46/68/24 48/66/25
f 7/61/26 46/69/26 45/70/27
f 8/5/26 47/71/28 48/72/26
f 50/73/5 52/74/5 49/75/5
f 54/76/3 56/77/3 53/78/3
f 54/76/7 51/79/7 50/80/7
f 54/76/1 49/81/1 55/82/1
f 51/83/4 56/77/4 52/84/4
f 42/49/7 55/85/7 43/53/7
f 58/86/5 60/87/5 57/88/5
f 62/89/3 64/90/3 61/91/3
f 62/89/7 58/92/7 57/93/7
f 62/89/1 60/94/1 63/95/1
f 61/91/4 59/96/4 58/97/4
f 49/98/7 64/99/7 63/100/7
f 66/101/5 68/102/5 65/103/5
f 70/104/3 72/105/3 69/106/3
f 70/104/7 66/107/7 65/108/7
f 70/104/1 68/109/1 71/110/1
f 69/106/4 72/105/4 73/111/4
f 55/85/7 73/112/7 72/113/7
f 75/114/5 77/115/5 74/116/5
f 79/117/3 81/118/3 78/119/3
f 79/117/7 75/120/7 74/121/7
f 79/117/1 77/122/1 80/123/1
f 78/119/4 76/124/4 75/125/4
f 38/126/7 80/127/7 77/128/7
f 68/129/7 81/130/7 80/127/7
f 83/131/5 85/132/5 82/133/5
f 87/134/3 89/135/3 86/136/3
f 87/134/7 83/137/7 82/138/7
f 87/134/1 85/139/1 88/140/1
f 83/141/4 89/135/4 84/142/4
f 27/28/7 84/143/7 89/144/7
f 91/145/5 93/146/5 90/147/5
f 95/148/3 97/149/3 94/150/3
f 95/148/7 91/151/7 90/152/7
f 95/148/1 93/153/1 96/154/1
f 94/150/4 92/155/4 91/156/4
f 84/143/7 22/157/7 97/158/7
f 99/159/5 101/160/5 98/161/5
f 103/162/3 105/163/3 102/164/3
f 103/162/7 99/165/7 98/166/7
f 103/162/1 101/167/1 104/168/1
f 102/164/4 100/169/4 99/170/4
f 88/171/7 100/172/7 105/173/7
f 107/174/5 109/175/5 106/176/5
f 111/177/3 113/178/3 110/179/3
f 111/177/7 107/180/7 106/181/7
f 111/177/1 109/182/1 112/183/1
f 110/179/4 108/184/4 107/185/4
f 108/186/7 93/187/7 21/188/7
f 101/189/7 113/190/7 112/191/7
f 1/1/1 2/192/1 3/2/1
f 6/4/2 7/16/2 8/5/2
f 10/7/3 6/4/3 11/8/3
f 12/10/4 13/13/4 9/11/4
f 5/6/5 14/15/5 13/13/5
f 6/4/2 5/6/2 12/10/2
f 5/6/5 8/5/5 15/14/5
f 10/7/3 16/193/3 7/16/3
f 18/17/4 19/20/4 20/18/4
f 19/20/6 16/60/6 15/14/6
f 14/15/7 15/14/7 16/21/7
f 22/23/8 23/26/8 24/24/8
f 23/26/2 25/33/2 26/27/2
f 26/27/9 25/33/9 27/28/9
f 24/30/10 26/27/10 28/29/10
f 23/32/11 22/194/11 27/28/11
f 30/34/5 31/37/5 32/35/5
f 31/37/2 33/39/2 34/38/2
f 33/39/3 35/41/3 36/40/3
f 35/41/7 30/195/7 29/42/7
f 34/38/1 36/40/1 29/43/1
f 31/45/4 30/196/4 35/41/4
f 38/46/3 39/197/3 40/47/3
f 42/49/5 43/53/5 44/50/5
f 38/52/4 37/198/4 44/50/4
f 39/54/1 42/49/1 41/51/1
f 44/56/7 13/13/7 14/15/7
f 40/59/7 41/57/7 14/15/7
f 10/22/7 9/199/7 37/58/7
f 9/199/7 13/13/7 37/58/7
f 13/13/7 44/56/7 37/58/7
f 40/59/7 14/15/7 10/22/7
f 2/62/16 45/65/29 46/63/17
f 1/1/19 47/67/19 45/65/19
f 1/1/20 4/3/30 48/66/21
f 4/3/23 3/200/31 46/68/24
f 7/61/26 18/17/26 46/69/26
f 48/72/26 46/69/26 18/17/26
f 18/17/26 17/19/26 48/72/26
f 17/19/26 8/5/26 48/72/26
f 8/5/26 7/61/26 47/71/28
f 7/61/26 45/70/27 47/71/28
f 50/73/5 51/201/5 52/74/5
f 54/76/3 55/82/3 56/77/3
f 54/76/7 53/78/7 51/79/7
f 54/76/1 50/202/1 49/81/1
f 51/83/4 53/78/4 56/77/4
f 42/49/7 56/203/7 55/85/7
f 58/86/5 59/204/5 60/87/5
f 62/89/3 63/95/3 64/90/3
f 62/89/7 61/91/7 58/92/7
f 62/89/1 57/205/1 60/94/1
f 61/91/4 64/90/4 59/96/4
f 49/98/7 52/206/7 64/99/7
f 66/101/5 67/207/5 68/102/5
f 70/104/3 71/110/3 72/105/3
f 70/104/7 69/106/7 66/107/7
f 70/104/1 65/208/1 68/109/1
f 67/209/4 66/210/4 73/111/4
f 66/210/4 69/106/4 73/111/4
f 55/85/7 49/98/7 73/112/7
f 75/114/5 76/211/5 77/115/5
f 79/117/3 80/123/3 81/118/3
f 79/117/7 78/119/7 75/120/7
f 79/117/1 74/212/1 77/122/1
f 78/119/4 81/118/4 76/124/4
f 67/213/7 73/112/7 49/98/7
f 49/98/7 63/100/7 81/130/7
f 63/100/7 60/214/7 76/215/7
f 81/130/7 67/213/7 49/98/7
f 76/215/7 81/130/7 63/100/7
f 77/128/7 76/215/7 38/126/7
f 76/215/7 60/214/7 38/126/7
f 59/216/7 64/99/7 39/217/7
f 64/99/7 52/206/7 42/49/7
f 39/217/7 64/99/7 42/49/7
f 52/206/7 56/203/7 42/49/7
f 43/53/7 55/85/7 72/113/7
f 71/218/7 68/129/7 43/53/7
f 68/129/7 80/127/7 43/53/7
f 43/53/7 72/113/7 71/218/7
f 60/214/7 59/216/7 39/217/7
f 38/126/7 43/53/7 80/127/7
f 60/214/7 39/217/7 38/126/7
f 68/129/7 67/213/7 81/130/7
f 83/131/5 84/219/5 85/132/5
f 87/134/3 88/140/3 89/135/3
f 87/134/7 86/136/7 83/137/7
f 87/134/1 82/220/1 85/139/1
f 83/141/4 86/136/4 89/135/4
f 27/28/7 22/157/7 84/143/7
f 91/145/5 92/221/5 93/146/5
f 95/148/3 96/154/3 97/149/3
f 95/148/7 94/150/7 91/151/7
f 95/148/1 90/222/1 93/153/1
f 94/150/4 97/149/4 92/155/4
f 97/158/7 96/223/7 85/224/7
f 22/157/7 92/225/7 97/158/7
f 97/158/7 85/224/7 84/143/7
f 99/159/5 100/226/5 101/160/5
f 103/162/3 104/168/3 105/163/3
f 103/162/7 102/164/7 99/165/7
f 103/162/1 98/227/1 101/167/1
f 102/164/4 105/163/4 100/169/4
f 88/171/7 85/224/7 100/172/7
f 107/174/5 108/228/5 109/175/5
f 111/177/3 112/183/3 113/178/3
f 111/177/7 110/179/7 107/180/7
f 111/177/1 106/229/1 109/182/1
f 110/179/4 113/178/4 108/184/4
f 85/224/7 96/223/7 113/190/7
f 96/223/7 93/187/7 108/186/7
f 85/224/7 113/190/7 100/172/7
f 93/187/7 92/225/7 22/157/7
f 28/29/7 27/28/7 105/173/7
f 27/28/7 89/144/7 88/171/7
f 88/171/7 105/173/7 27/28/7
f 105/173/7 104/230/7 28/29/7
f 93/187/7 22/157/7 21/188/7
f 113/190/7 96/223/7 108/186/7
f 101/189/7 112/191/7 21/188/7
f 112/191/7 109/231/7 21/188/7
f 101/189/7 21/188/7 28/29/7
f 28/29/7 104/230/7 101/189/7
f 109/231/7 108/186/7 21/188/7
f 101/189/7 100/172/7 113/190/7
